<svg width="256" height="256" viewBox="0 0 256 256" fill="none" xmlns="http://www.w3.org/2000/svg">
<rect width="256" height="256" fill="#5474FD"/>
<path d="M126.42 51.846C140.808 51.846 152.094 54.816 160.278 60.756C168.594 66.564 172.752 75.672 172.752 88.08C172.752 95.604 171.036 102.138 167.604 107.682C164.172 113.226 159.354 117.582 153.15 120.75C147.078 123.918 139.884 125.7 131.568 126.096L128.796 116.196C138.432 116.46 147.078 118.176 154.734 121.344C162.39 124.512 168.462 128.934 172.95 134.61C177.438 140.286 179.682 147.018 179.682 154.806C179.682 161.934 178.362 168.072 175.722 173.22C173.082 178.236 169.518 182.394 165.03 185.694C160.542 188.862 155.46 191.238 149.784 192.822C144.108 194.274 138.234 195 132.162 195H89.592V51.846H126.42ZM130.38 114.612C138.3 114.612 144.042 112.434 147.606 108.078C151.17 103.59 152.952 98.178 152.952 91.842C152.952 84.318 150.642 78.84 146.022 75.408C141.402 71.976 135.198 70.26 127.41 70.26H108.798V114.612H130.38ZM131.172 177.18C136.452 177.18 141.27 176.388 145.626 174.804C150.114 173.22 153.612 170.778 156.12 167.478C158.76 164.178 160.08 160.02 160.08 155.004C160.08 149.46 158.562 145.104 155.526 141.936C152.622 138.768 148.86 136.524 144.24 135.204C139.62 133.752 134.868 133.026 129.984 133.026H108.798V177.18H131.172Z" fill="white"/>
</svg>
